<svg xmlns="http://www.w3.org/2000/svg" xmlns:xlink="http://www.w3.org/1999/xlink" id="Layer_1" x="0px" y="0px" viewBox="0 0 986 275" style="enable-background:new 0 0 986 275;" xml:space="preserve">
<style type="text/css">
	.st0{display:none;}
	.st1{display:inline;fill:#DBD7CF;}
	.st2{fill:#3F6161;}
</style>
<g class="st0">
	<path class="st1" d="M0,258.3c2.8,0.5,5.5,0.9,8.3,1c19.2,0,24.4-6.5,24.4-32.9V89.6c0-10.1-1.6-13-7.1-13H7.8V61.3h13.6   c11.9,0.1,23.7-0.8,35.5-2.6v166c0,38.4-11.4,50.7-43.3,50.7c-4.7,0-9.3-0.7-13.7-2.3L0,258.3z M26.7,16.2   c0-9.2,7.4-16.7,16.7-16.7c0.3,0,0.6,0,0.9,0C53.8-0.2,61.2,7.7,61,17.1c-0.3,9.4-8.1,16.9-17.6,16.6C34,33.5,26.5,25.7,26.7,16.2z   "></path>
	<path class="st1" d="M120.6,143.7c0.3,36.1,20.9,62.8,56.6,62.8c29.6,0,46.6-15.6,53.1-40.4l15.9,5.5c-7.1,29-29.9,50.8-70.3,50.8   c-50.8,0-80.1-34.8-80.1-82.4c0-48.2,31.6-82.3,78.8-82.3c44.9,0,72.9,30.9,72.9,78.4v7.5L120.6,143.7z M120.6,129.4h102.2   c-0.3-35.5-17.6-56.3-48.5-56.3C142.8,73.1,123.2,94.8,120.6,129.4z"></path>
	<path class="st1" d="M290.1,180.1V76.6h-24.4V63.3c0,0,17.9-1.3,17.2-1.3c7.5-0.6,11.1-2.9,11.7-11.1l2.3-28.3h17.9v38.8h36.8v15.3   H314v103.5c0,18.6,6.5,25.7,22.8,25.7c6,0.1,12-1.1,17.6-3.3v15.6c-7.4,2.6-15.2,3.9-23.1,3.9C302.1,222.1,290.1,210.1,290.1,180.1   z"></path>
	<path class="st1" d="M401.8,180.1V76.6h-24.4V63.3c0,0,17.9-1.3,17.3-1.3c7.5-0.6,11.1-2.9,11.7-11.1l2.3-28.3h17.9v38.8h36.8v15.3   h-37.6v103.5c0,18.6,6.5,25.7,22.8,25.7c6,0,12-1.1,17.6-3.3v15.6c-7.4,2.6-15.2,3.9-23.1,3.9C413.7,222.1,401.8,210.1,401.8,180.1   z"></path>
	<path class="st1" d="M540.8,96.1c8.1-27.7,25.4-38.4,43.9-38.4c21.8,0,33.4,14,33.4,31.3c0,14-7.5,22.8-19.5,22.8   c-7.8,0.3-14.3-5.8-14.5-13.6c-0.3-7.2,5.1-13.5,12.2-14.4C595,79.2,590.1,74,580,74c-26.4,0-38.7,27.7-38.7,67.4v55.3   c0,5.8,1.6,6.8,4.5,6.8h21.8v15.3h-75.3v-15.3h20.5c2.6,0,4.2-1,4.2-6.8V84.5c0-6.2-1-7.8-4.2-7.8h-20.9V61.3h13.4   c11.9,0.1,23.7-0.8,35.5-2.6L540.8,96.1z"></path>
	<path class="st1" d="M671.7,87c6.5,1.9,10.8,7.9,10.4,14.6c0.1,8.4-6.6,15.2-14.9,15.4c-0.4,0-0.9,0-1.3,0   c-10.8,0-17.9-7.5-17.9-18.9c0-25,30.6-40.4,66.8-40.4c42.9,0,62.6,16.9,62.6,54.7v84.3c0,4.9,1,6.8,4.2,6.8h20.2v15.3h-43   c-3-10.9-4.8-22.1-5.2-33.4c-8.8,22.4-32.9,37.1-60.2,37.1c-30,0-48.8-17.3-48.8-41.7c0-35.8,34.8-51.1,108.5-58.9v-9.1   c0-28-12.5-39.7-41.3-39.7C692.2,73.1,678.8,78.2,671.7,87z M752.7,148.5v-13.6c-57.9,5.8-84.6,16.3-84.6,42.9   c0,16.9,13,28.3,32.5,28.3C731.9,206.2,752.4,182.7,752.7,148.5L752.7,148.5z"></path>
	<path class="st1" d="M900.4,193.2l44.3-109c1.3-2.5,0.3-5.7-2.2-7c-0.9-0.5-2-0.7-3-0.5h-19.5V61.3H986v15.3h-15.9   c-3.3,0-5.9,1.3-8.3,6.8l-56.8,137.5h-16.7L830.6,83.6c-2.3-5.8-4.2-6.8-7.2-6.8h-16.7V61.5h71.6v15.3h-18.1c-4.5,0-7.2,2-4.9,7.2   C857.1,89,888,163.5,900.4,193.2z"></path>
</g>
<g>
	<path class="st2" d="M0,258.3c2.8,0.5,5.5,0.9,8.3,1c19.2,0,24.4-6.5,24.4-32.9V89.6c0-10.1-1.6-13-7.1-13H7.8V61.3h13.6   c11.9,0.1,23.7-0.8,35.5-2.6v166c0,38.4-11.4,50.7-43.3,50.7c-4.7,0-9.3-0.7-13.7-2.3L0,258.3z M26.7,16.2   c0-9.2,7.4-16.7,16.7-16.7c0.3,0,0.6,0,0.9,0C53.8-0.2,61.2,7.7,61,17.1c-0.3,9.4-8.1,16.9-17.6,16.6C34,33.5,26.5,25.7,26.7,16.2z   "></path>
	<path class="st2" d="M120.6,143.7c0.3,36.1,20.9,62.8,56.6,62.8c29.6,0,46.6-15.6,53.1-40.4l15.9,5.5c-7.1,29-29.9,50.8-70.3,50.8   c-50.8,0-80.1-34.8-80.1-82.4c0-48.2,31.6-82.3,78.8-82.3c44.9,0,72.9,30.9,72.9,78.4v7.5L120.6,143.7z M120.6,129.4h102.2   c-0.3-35.5-17.6-56.3-48.5-56.3C142.8,73.1,123.2,94.8,120.6,129.4z"></path>
	<path class="st2" d="M290.1,180.1V76.6h-24.4V63.3c0,0,17.9-1.3,17.2-1.3c7.5-0.6,11.1-2.9,11.7-11.1l2.3-28.3h17.9v38.8h36.8v15.3   H314v103.5c0,18.6,6.5,25.7,22.8,25.7c6,0.1,12-1.1,17.6-3.3v15.6c-7.4,2.6-15.2,3.9-23.1,3.9C302.1,222.1,290.1,210.1,290.1,180.1   z"></path>
	<path class="st2" d="M401.8,180.1V76.6h-24.4V63.3c0,0,17.9-1.3,17.3-1.3c7.5-0.6,11.1-2.9,11.7-11.1l2.3-28.3h17.9v38.8h36.8v15.3   h-37.6v103.5c0,18.6,6.5,25.7,22.8,25.7c6,0,12-1.1,17.6-3.3v15.6c-7.4,2.6-15.2,3.9-23.1,3.9C413.7,222.1,401.8,210.1,401.8,180.1   z"></path>
	<path class="st2" d="M540.8,96.1c8.1-27.7,25.4-38.4,43.9-38.4c21.8,0,33.4,14,33.4,31.3c0,14-7.5,22.8-19.5,22.8   c-7.8,0.3-14.3-5.8-14.5-13.6c-0.3-7.2,5.1-13.5,12.2-14.4C595,79.2,590.1,74,580,74c-26.4,0-38.7,27.7-38.7,67.4v55.3   c0,5.8,1.6,6.8,4.5,6.8h21.8v15.3h-75.3v-15.3h20.5c2.6,0,4.2-1,4.2-6.8V84.5c0-6.2-1-7.8-4.2-7.8h-20.9V61.3h13.4   c11.9,0.1,23.7-0.8,35.5-2.6L540.8,96.1z"></path>
	<path class="st2" d="M671.7,87c6.5,1.9,10.8,7.9,10.4,14.6c0.1,8.4-6.6,15.2-14.9,15.4c-0.4,0-0.9,0-1.3,0   c-10.8,0-17.9-7.5-17.9-18.9c0-25,30.6-40.4,66.8-40.4c42.9,0,62.6,16.9,62.6,54.7v84.3c0,4.9,1,6.8,4.2,6.8h20.2v15.3h-43   c-3-10.9-4.8-22.1-5.2-33.4c-8.8,22.4-32.9,37.1-60.2,37.1c-30,0-48.8-17.3-48.8-41.7c0-35.8,34.8-51.1,108.5-58.9v-9.1   c0-28-12.5-39.7-41.3-39.7C692.2,73.1,678.8,78.2,671.7,87z M752.7,148.5v-13.6c-57.9,5.8-84.6,16.3-84.6,42.9   c0,16.9,13,28.3,32.5,28.3C731.9,206.2,752.4,182.7,752.7,148.5L752.7,148.5z"></path>
	<path class="st2" d="M900.4,193.2l44.3-109c1.3-2.5,0.3-5.7-2.2-7c-0.9-0.5-2-0.7-3-0.5h-19.5V61.3H986v15.3h-15.9   c-3.3,0-5.9,1.3-8.3,6.8l-56.8,137.5h-16.7L830.6,83.6c-2.3-5.8-4.2-6.8-7.2-6.8h-16.7V61.5h71.6v15.3h-18.1c-4.5,0-7.2,2-4.9,7.2   C857.1,89,888,163.5,900.4,193.2z"></path>
</g>
</svg>